%TF.GenerationSoftware,KiCad,Pcbnew,10.0.3*%
%TF.CreationDate,2026-06-02T08:54:32-05:00*%
%TF.ProjectId,Hack Club Project PCB,4861636b-2043-46c7-9562-2050726f6a65,rev?*%
%TF.SameCoordinates,Original*%
%TF.FileFunction,Legend,Bot*%
%TF.FilePolarity,Positive*%
%FSLAX46Y46*%
G04 Gerber Fmt 4.6, Leading zero omitted, Abs format (unit mm)*
G04 Created by KiCad (PCBNEW 10.0.3) date 2026-06-02 08:54:32*
%MOMM*%
%LPD*%
G01*
G04 APERTURE LIST*
%ADD10C,0.101600*%
%ADD11C,0.150000*%
%ADD12C,0.127000*%
%ADD13C,0.120000*%
%ADD14C,0.254000*%
%ADD15C,0.025400*%
G04 APERTURE END LIST*
D10*
X131802333Y-90936985D02*
X131802333Y-91656652D01*
X131802333Y-91656652D02*
X131760000Y-91741318D01*
X131760000Y-91741318D02*
X131717666Y-91783652D01*
X131717666Y-91783652D02*
X131633000Y-91825985D01*
X131633000Y-91825985D02*
X131463666Y-91825985D01*
X131463666Y-91825985D02*
X131379000Y-91783652D01*
X131379000Y-91783652D02*
X131336666Y-91741318D01*
X131336666Y-91741318D02*
X131294333Y-91656652D01*
X131294333Y-91656652D02*
X131294333Y-90936985D01*
X130405333Y-91825985D02*
X130913333Y-91825985D01*
X130659333Y-91825985D02*
X130659333Y-90936985D01*
X130659333Y-90936985D02*
X130744000Y-91063985D01*
X130744000Y-91063985D02*
X130828667Y-91148652D01*
X130828667Y-91148652D02*
X130913333Y-91190985D01*
D11*
X135886904Y-87787200D02*
X135744047Y-87834819D01*
X135744047Y-87834819D02*
X135505952Y-87834819D01*
X135505952Y-87834819D02*
X135410714Y-87787200D01*
X135410714Y-87787200D02*
X135363095Y-87739580D01*
X135363095Y-87739580D02*
X135315476Y-87644342D01*
X135315476Y-87644342D02*
X135315476Y-87549104D01*
X135315476Y-87549104D02*
X135363095Y-87453866D01*
X135363095Y-87453866D02*
X135410714Y-87406247D01*
X135410714Y-87406247D02*
X135505952Y-87358628D01*
X135505952Y-87358628D02*
X135696428Y-87311009D01*
X135696428Y-87311009D02*
X135791666Y-87263390D01*
X135791666Y-87263390D02*
X135839285Y-87215771D01*
X135839285Y-87215771D02*
X135886904Y-87120533D01*
X135886904Y-87120533D02*
X135886904Y-87025295D01*
X135886904Y-87025295D02*
X135839285Y-86930057D01*
X135839285Y-86930057D02*
X135791666Y-86882438D01*
X135791666Y-86882438D02*
X135696428Y-86834819D01*
X135696428Y-86834819D02*
X135458333Y-86834819D01*
X135458333Y-86834819D02*
X135315476Y-86882438D01*
X134505952Y-87787200D02*
X134601190Y-87834819D01*
X134601190Y-87834819D02*
X134791666Y-87834819D01*
X134791666Y-87834819D02*
X134886904Y-87787200D01*
X134886904Y-87787200D02*
X134934523Y-87691961D01*
X134934523Y-87691961D02*
X134934523Y-87311009D01*
X134934523Y-87311009D02*
X134886904Y-87215771D01*
X134886904Y-87215771D02*
X134791666Y-87168152D01*
X134791666Y-87168152D02*
X134601190Y-87168152D01*
X134601190Y-87168152D02*
X134505952Y-87215771D01*
X134505952Y-87215771D02*
X134458333Y-87311009D01*
X134458333Y-87311009D02*
X134458333Y-87406247D01*
X134458333Y-87406247D02*
X134934523Y-87501485D01*
X133648809Y-87787200D02*
X133744047Y-87834819D01*
X133744047Y-87834819D02*
X133934523Y-87834819D01*
X133934523Y-87834819D02*
X134029761Y-87787200D01*
X134029761Y-87787200D02*
X134077380Y-87691961D01*
X134077380Y-87691961D02*
X134077380Y-87311009D01*
X134077380Y-87311009D02*
X134029761Y-87215771D01*
X134029761Y-87215771D02*
X133934523Y-87168152D01*
X133934523Y-87168152D02*
X133744047Y-87168152D01*
X133744047Y-87168152D02*
X133648809Y-87215771D01*
X133648809Y-87215771D02*
X133601190Y-87311009D01*
X133601190Y-87311009D02*
X133601190Y-87406247D01*
X133601190Y-87406247D02*
X134077380Y-87501485D01*
X132791666Y-87787200D02*
X132886904Y-87834819D01*
X132886904Y-87834819D02*
X133077380Y-87834819D01*
X133077380Y-87834819D02*
X133172618Y-87787200D01*
X133172618Y-87787200D02*
X133220237Y-87691961D01*
X133220237Y-87691961D02*
X133220237Y-87311009D01*
X133220237Y-87311009D02*
X133172618Y-87215771D01*
X133172618Y-87215771D02*
X133077380Y-87168152D01*
X133077380Y-87168152D02*
X132886904Y-87168152D01*
X132886904Y-87168152D02*
X132791666Y-87215771D01*
X132791666Y-87215771D02*
X132744047Y-87311009D01*
X132744047Y-87311009D02*
X132744047Y-87406247D01*
X132744047Y-87406247D02*
X133220237Y-87501485D01*
X131886904Y-87834819D02*
X131886904Y-86834819D01*
X131886904Y-87787200D02*
X131982142Y-87834819D01*
X131982142Y-87834819D02*
X132172618Y-87834819D01*
X132172618Y-87834819D02*
X132267856Y-87787200D01*
X132267856Y-87787200D02*
X132315475Y-87739580D01*
X132315475Y-87739580D02*
X132363094Y-87644342D01*
X132363094Y-87644342D02*
X132363094Y-87358628D01*
X132363094Y-87358628D02*
X132315475Y-87263390D01*
X132315475Y-87263390D02*
X132267856Y-87215771D01*
X132267856Y-87215771D02*
X132172618Y-87168152D01*
X132172618Y-87168152D02*
X131982142Y-87168152D01*
X131982142Y-87168152D02*
X131886904Y-87215771D01*
X130696427Y-87787200D02*
X130553570Y-87834819D01*
X130553570Y-87834819D02*
X130315475Y-87834819D01*
X130315475Y-87834819D02*
X130220237Y-87787200D01*
X130220237Y-87787200D02*
X130172618Y-87739580D01*
X130172618Y-87739580D02*
X130124999Y-87644342D01*
X130124999Y-87644342D02*
X130124999Y-87549104D01*
X130124999Y-87549104D02*
X130172618Y-87453866D01*
X130172618Y-87453866D02*
X130220237Y-87406247D01*
X130220237Y-87406247D02*
X130315475Y-87358628D01*
X130315475Y-87358628D02*
X130505951Y-87311009D01*
X130505951Y-87311009D02*
X130601189Y-87263390D01*
X130601189Y-87263390D02*
X130648808Y-87215771D01*
X130648808Y-87215771D02*
X130696427Y-87120533D01*
X130696427Y-87120533D02*
X130696427Y-87025295D01*
X130696427Y-87025295D02*
X130648808Y-86930057D01*
X130648808Y-86930057D02*
X130601189Y-86882438D01*
X130601189Y-86882438D02*
X130505951Y-86834819D01*
X130505951Y-86834819D02*
X130267856Y-86834819D01*
X130267856Y-86834819D02*
X130124999Y-86882438D01*
X129839284Y-87168152D02*
X129458332Y-87168152D01*
X129696427Y-86834819D02*
X129696427Y-87691961D01*
X129696427Y-87691961D02*
X129648808Y-87787200D01*
X129648808Y-87787200D02*
X129553570Y-87834819D01*
X129553570Y-87834819D02*
X129458332Y-87834819D01*
X128696427Y-87168152D02*
X128696427Y-87834819D01*
X129124998Y-87168152D02*
X129124998Y-87691961D01*
X129124998Y-87691961D02*
X129077379Y-87787200D01*
X129077379Y-87787200D02*
X128982141Y-87834819D01*
X128982141Y-87834819D02*
X128839284Y-87834819D01*
X128839284Y-87834819D02*
X128744046Y-87787200D01*
X128744046Y-87787200D02*
X128696427Y-87739580D01*
X127791665Y-87834819D02*
X127791665Y-86834819D01*
X127791665Y-87787200D02*
X127886903Y-87834819D01*
X127886903Y-87834819D02*
X128077379Y-87834819D01*
X128077379Y-87834819D02*
X128172617Y-87787200D01*
X128172617Y-87787200D02*
X128220236Y-87739580D01*
X128220236Y-87739580D02*
X128267855Y-87644342D01*
X128267855Y-87644342D02*
X128267855Y-87358628D01*
X128267855Y-87358628D02*
X128220236Y-87263390D01*
X128220236Y-87263390D02*
X128172617Y-87215771D01*
X128172617Y-87215771D02*
X128077379Y-87168152D01*
X128077379Y-87168152D02*
X127886903Y-87168152D01*
X127886903Y-87168152D02*
X127791665Y-87215771D01*
X127315474Y-87834819D02*
X127315474Y-87168152D01*
X127315474Y-86834819D02*
X127363093Y-86882438D01*
X127363093Y-86882438D02*
X127315474Y-86930057D01*
X127315474Y-86930057D02*
X127267855Y-86882438D01*
X127267855Y-86882438D02*
X127315474Y-86834819D01*
X127315474Y-86834819D02*
X127315474Y-86930057D01*
X126696427Y-87834819D02*
X126791665Y-87787200D01*
X126791665Y-87787200D02*
X126839284Y-87739580D01*
X126839284Y-87739580D02*
X126886903Y-87644342D01*
X126886903Y-87644342D02*
X126886903Y-87358628D01*
X126886903Y-87358628D02*
X126839284Y-87263390D01*
X126839284Y-87263390D02*
X126791665Y-87215771D01*
X126791665Y-87215771D02*
X126696427Y-87168152D01*
X126696427Y-87168152D02*
X126553570Y-87168152D01*
X126553570Y-87168152D02*
X126458332Y-87215771D01*
X126458332Y-87215771D02*
X126410713Y-87263390D01*
X126410713Y-87263390D02*
X126363094Y-87358628D01*
X126363094Y-87358628D02*
X126363094Y-87644342D01*
X126363094Y-87644342D02*
X126410713Y-87739580D01*
X126410713Y-87739580D02*
X126458332Y-87787200D01*
X126458332Y-87787200D02*
X126553570Y-87834819D01*
X126553570Y-87834819D02*
X126696427Y-87834819D01*
X132648808Y-88834819D02*
X131982142Y-89834819D01*
X131982142Y-88834819D02*
X132648808Y-89834819D01*
X131601189Y-89834819D02*
X131601189Y-88834819D01*
X131172618Y-89549104D02*
X130696428Y-89549104D01*
X131267856Y-89834819D02*
X130934523Y-88834819D01*
X130934523Y-88834819D02*
X130601190Y-89834819D01*
X130077380Y-88834819D02*
X129886904Y-88834819D01*
X129886904Y-88834819D02*
X129791666Y-88882438D01*
X129791666Y-88882438D02*
X129696428Y-88977676D01*
X129696428Y-88977676D02*
X129648809Y-89168152D01*
X129648809Y-89168152D02*
X129648809Y-89501485D01*
X129648809Y-89501485D02*
X129696428Y-89691961D01*
X129696428Y-89691961D02*
X129791666Y-89787200D01*
X129791666Y-89787200D02*
X129886904Y-89834819D01*
X129886904Y-89834819D02*
X130077380Y-89834819D01*
X130077380Y-89834819D02*
X130172618Y-89787200D01*
X130172618Y-89787200D02*
X130267856Y-89691961D01*
X130267856Y-89691961D02*
X130315475Y-89501485D01*
X130315475Y-89501485D02*
X130315475Y-89168152D01*
X130315475Y-89168152D02*
X130267856Y-88977676D01*
X130267856Y-88977676D02*
X130172618Y-88882438D01*
X130172618Y-88882438D02*
X130077380Y-88834819D01*
%TO.C,U1*%
D12*
X122225000Y-97380000D02*
X122225000Y-80380000D01*
X124225000Y-78380910D02*
X138025000Y-78380910D01*
X126625000Y-76955970D02*
X126625000Y-84309270D01*
X126625000Y-84309270D02*
X135625000Y-84309270D01*
X135625000Y-76955970D02*
X126625000Y-76955970D01*
X135625000Y-84309270D02*
X135625000Y-76955970D01*
X138025000Y-99380000D02*
X124225000Y-99380000D01*
X140025000Y-80380000D02*
X140025000Y-97380000D01*
D13*
X122225000Y-80380000D02*
G75*
G02*
X124225000Y-78380000I2044610J-44610D01*
G01*
X124225000Y-99380000D02*
G75*
G02*
X122225000Y-97380000I0J2000000D01*
G01*
X138025000Y-78380000D02*
G75*
G02*
X140025000Y-80380000I-44612J-2044612D01*
G01*
X140025000Y-97380000D02*
G75*
G02*
X138025000Y-99380000I-2044857J44857D01*
G01*
D14*
X142252000Y-80080000D02*
G75*
G02*
X141998000Y-80080000I-127000J0D01*
G01*
X141998000Y-80080000D02*
G75*
G02*
X142252000Y-80080000I127000J0D01*
G01*
D15*
X140012715Y-80318295D02*
X140009667Y-80269527D01*
X140005603Y-80220506D01*
X140012715Y-80318295D01*
X122235508Y-97401574D02*
X122237287Y-97450850D01*
X122240335Y-97499618D01*
X122244399Y-97548639D01*
X122249732Y-97597407D01*
X122256336Y-97646175D01*
X122263956Y-97694690D01*
X122272847Y-97742950D01*
X122282752Y-97790955D01*
X122235508Y-97401574D01*
%TD*%
M02*
