solid ASCII
  facet normal 9.914449e-01 1.305262e-01 0.000000e+00
    outer loop
      vertex   -6.419088e+00 4.975870e+01 1.450000e+01
      vertex   -6.419088e+00 4.975870e+01 1.300000e+01
      vertex   -6.467877e+00 5.012929e+01 1.450000e+01
    endloop
  endfacet
  facet normal 9.914449e-01 1.305262e-01 0.000000e+00
    outer loop
      vertex   -6.467877e+00 5.012929e+01 1.450000e+01
      vertex   -6.419088e+00 4.975870e+01 1.300000e+01
      vertex   -6.467877e+00 5.012929e+01 1.300000e+01
    endloop
  endfacet
  facet normal 9.914449e-01 -1.305262e-01 0.000000e+00
    outer loop
      vertex   -6.467877e+00 5.012929e+01 1.450000e+01
      vertex   -6.467877e+00 5.012929e+01 1.300000e+01
      vertex   -6.419088e+00 5.049988e+01 1.450000e+01
    endloop
  endfacet
  facet normal 9.914449e-01 -1.305262e-01 0.000000e+00
    outer loop
      vertex   -6.419088e+00 5.049988e+01 1.450000e+01
      vertex   -6.467877e+00 5.012929e+01 1.300000e+01
      vertex   -6.419088e+00 5.049988e+01 1.300000e+01
    endloop
  endfacet
  facet normal 9.238795e-01 -3.826834e-01 0.000000e+00
    outer loop
      vertex   -6.419088e+00 5.049988e+01 1.450000e+01
      vertex   -6.419088e+00 5.049988e+01 1.300000e+01
      vertex   -6.276046e+00 5.084522e+01 1.450000e+01
    endloop
  endfacet
  facet normal 9.238795e-01 -3.826834e-01 0.000000e+00
    outer loop
      vertex   -6.276046e+00 5.084522e+01 1.450000e+01
      vertex   -6.419088e+00 5.049988e+01 1.300000e+01
      vertex   -6.276046e+00 5.084522e+01 1.300000e+01
    endloop
  endfacet
  facet normal 7.933533e-01 -6.087614e-01 0.000000e+00
    outer loop
      vertex   -6.276046e+00 5.084522e+01 1.450000e+01
      vertex   -6.276046e+00 5.084522e+01 1.300000e+01
      vertex   -6.048499e+00 5.114176e+01 1.450000e+01
    endloop
  endfacet
  facet normal 7.933533e-01 -6.087614e-01 0.000000e+00
    outer loop
      vertex   -6.048499e+00 5.114176e+01 1.450000e+01
      vertex   -6.276046e+00 5.084522e+01 1.300000e+01
      vertex   -6.048499e+00 5.114176e+01 1.300000e+01
    endloop
  endfacet
  facet normal 6.087614e-01 -7.933533e-01 0.000000e+00
    outer loop
      vertex   -6.048499e+00 5.114176e+01 1.450000e+01
      vertex   -6.048499e+00 5.114176e+01 1.300000e+01
      vertex   -5.751954e+00 5.136931e+01 1.450000e+01
    endloop
  endfacet
  facet normal 6.087614e-01 -7.933533e-01 7.209184e-16
    outer loop
      vertex   -5.751954e+00 5.136931e+01 1.450000e+01
      vertex   -6.048499e+00 5.114176e+01 1.300000e+01
      vertex   -5.751954e+00 5.136931e+01 1.300000e+01
    endloop
  endfacet
  facet normal 3.826834e-01 -9.238795e-01 4.531882e-16
    outer loop
      vertex   -5.751954e+00 5.136931e+01 1.450000e+01
      vertex   -5.751954e+00 5.136931e+01 1.300000e+01
      vertex   -5.406620e+00 5.151235e+01 1.450000e+01
    endloop
  endfacet
  facet normal 3.826834e-01 -9.238795e-01 4.531882e-16
    outer loop
      vertex   -5.406620e+00 5.151235e+01 1.450000e+01
      vertex   -5.751954e+00 5.136931e+01 1.300000e+01
      vertex   -5.406620e+00 5.151235e+01 1.300000e+01
    endloop
  endfacet
  facet normal 1.305262e-01 -9.914449e-01 1.545741e-16
    outer loop
      vertex   -5.406620e+00 5.151235e+01 1.450000e+01
      vertex   -5.406620e+00 5.151235e+01 1.300000e+01
      vertex   -5.036031e+00 5.156114e+01 1.450000e+01
    endloop
  endfacet
  facet normal 1.305262e-01 -9.914449e-01 0.000000e+00
    outer loop
      vertex   -5.036031e+00 5.156114e+01 1.450000e+01
      vertex   -5.406620e+00 5.151235e+01 1.300000e+01
      vertex   -5.036031e+00 5.156114e+01 1.300000e+01
    endloop
  endfacet
  facet normal -1.305262e-01 -9.914449e-01 -0.000000e+00
    outer loop
      vertex   -5.036031e+00 5.156114e+01 1.450000e+01
      vertex   -5.036031e+00 5.156114e+01 1.300000e+01
      vertex   -4.665442e+00 5.151235e+01 1.450000e+01
    endloop
  endfacet
  facet normal -1.305262e-01 -9.914449e-01 -1.545741e-16
    outer loop
      vertex   -4.665442e+00 5.151235e+01 1.450000e+01
      vertex   -5.036031e+00 5.156114e+01 1.300000e+01
      vertex   -4.665442e+00 5.151235e+01 1.300000e+01
    endloop
  endfacet
  facet normal -3.826834e-01 -9.238795e-01 -4.531882e-16
    outer loop
      vertex   -4.665442e+00 5.151235e+01 1.450000e+01
      vertex   -4.665442e+00 5.151235e+01 1.300000e+01
      vertex   -4.320108e+00 5.136931e+01 1.450000e+01
    endloop
  endfacet
  facet normal -3.826834e-01 -9.238795e-01 -2.265941e-16
    outer loop
      vertex   -4.320108e+00 5.136931e+01 1.450000e+01
      vertex   -4.665442e+00 5.151235e+01 1.300000e+01
      vertex   -4.320108e+00 5.136931e+01 1.300000e+01
    endloop
  endfacet
  facet normal -6.087614e-01 -7.933533e-01 -3.604592e-16
    outer loop
      vertex   -4.320108e+00 5.136931e+01 1.450000e+01
      vertex   -4.320108e+00 5.136931e+01 1.300000e+01
      vertex   -4.023563e+00 5.114176e+01 1.450000e+01
    endloop
  endfacet
  facet normal -6.087614e-01 -7.933533e-01 7.155694e-15
    outer loop
      vertex   -4.023563e+00 5.114176e+01 1.450000e+01
      vertex   -4.320108e+00 5.136931e+01 1.300000e+01
      vertex   -4.023563e+00 5.114176e+01 1.300000e+01
    endloop
  endfacet
  facet normal -7.933533e-01 -6.087614e-01 5.297587e-15
    outer loop
      vertex   -4.023563e+00 5.114176e+01 1.450000e+01
      vertex   -4.023563e+00 5.114176e+01 1.300000e+01
      vertex   -3.796016e+00 5.084522e+01 1.450000e+01
    endloop
  endfacet
  facet normal -7.933533e-01 -6.087614e-01 -0.000000e+00
    outer loop
      vertex   -3.796016e+00 5.084522e+01 1.450000e+01
      vertex   -4.023563e+00 5.114176e+01 1.300000e+01
      vertex   -3.796016e+00 5.084522e+01 1.300000e+01
    endloop
  endfacet
  facet normal -9.238795e-01 -3.826834e-01 -0.000000e+00
    outer loop
      vertex   -3.796016e+00 5.084522e+01 1.450000e+01
      vertex   -3.796016e+00 5.084522e+01 1.300000e+01
      vertex   -3.652974e+00 5.049988e+01 1.450000e+01
    endloop
  endfacet
  facet normal -9.238795e-01 -3.826834e-01 1.812753e-15
    outer loop
      vertex   -3.652974e+00 5.049988e+01 1.450000e+01
      vertex   -3.796016e+00 5.084522e+01 1.300000e+01
      vertex   -3.652974e+00 5.049988e+01 1.300000e+01
    endloop
  endfacet
  facet normal -9.914449e-01 -1.305262e-01 6.182963e-16
    outer loop
      vertex   -3.652974e+00 5.049988e+01 1.450000e+01
      vertex   -3.652974e+00 5.049988e+01 1.300000e+01
      vertex   -3.604185e+00 5.012929e+01 1.450000e+01
    endloop
  endfacet
  facet normal -9.914449e-01 -1.305262e-01 -0.000000e+00
    outer loop
      vertex   -3.604185e+00 5.012929e+01 1.450000e+01
      vertex   -3.652974e+00 5.049988e+01 1.300000e+01
      vertex   -3.604185e+00 5.012929e+01 1.300000e+01
    endloop
  endfacet
  facet normal -9.914449e-01 1.305262e-01 0.000000e+00
    outer loop
      vertex   -3.604185e+00 5.012929e+01 1.450000e+01
      vertex   -3.604185e+00 5.012929e+01 1.300000e+01
      vertex   -3.652974e+00 4.975870e+01 1.450000e+01
    endloop
  endfacet
  facet normal -9.914449e-01 1.305262e-01 -6.182963e-16
    outer loop
      vertex   -3.652974e+00 4.975870e+01 1.450000e+01
      vertex   -3.604185e+00 5.012929e+01 1.300000e+01
      vertex   -3.652974e+00 4.975870e+01 1.300000e+01
    endloop
  endfacet
  facet normal -9.238795e-01 3.826834e-01 -1.812753e-15
    outer loop
      vertex   -3.652974e+00 4.975870e+01 1.450000e+01
      vertex   -3.652974e+00 4.975870e+01 1.300000e+01
      vertex   -3.796016e+00 4.941337e+01 1.450000e+01
    endloop
  endfacet
  facet normal -9.238795e-01 3.826834e-01 0.000000e+00
    outer loop
      vertex   -3.796016e+00 4.941337e+01 1.450000e+01
      vertex   -3.652974e+00 4.975870e+01 1.300000e+01
      vertex   -3.796016e+00 4.941337e+01 1.300000e+01
    endloop
  endfacet
  facet normal -7.933533e-01 6.087614e-01 0.000000e+00
    outer loop
      vertex   -3.796016e+00 4.941337e+01 1.450000e+01
      vertex   -3.796016e+00 4.941337e+01 1.300000e+01
      vertex   -4.023563e+00 4.911682e+01 1.450000e+01
    endloop
  endfacet
  facet normal -7.933533e-01 6.087614e-01 -2.413914e-15
    outer loop
      vertex   -4.023563e+00 4.911682e+01 1.450000e+01
      vertex   -3.796016e+00 4.941337e+01 1.300000e+01
      vertex   -4.023563e+00 4.911682e+01 1.300000e+01
    endloop
  endfacet
  facet normal -6.087614e-01 7.933533e-01 -3.397617e-15
    outer loop
      vertex   -4.023563e+00 4.911682e+01 1.450000e+01
      vertex   -4.023563e+00 4.911682e+01 1.300000e+01
      vertex   -4.320108e+00 4.888928e+01 1.450000e+01
    endloop
  endfacet
  facet normal -6.087614e-01 7.933533e-01 3.604592e-16
    outer loop
      vertex   -4.320108e+00 4.888928e+01 1.450000e+01
      vertex   -4.023563e+00 4.911682e+01 1.300000e+01
      vertex   -4.320108e+00 4.888928e+01 1.300000e+01
    endloop
  endfacet
  facet normal -3.826834e-01 9.238795e-01 2.265941e-16
    outer loop
      vertex   -4.320108e+00 4.888928e+01 1.450000e+01
      vertex   -4.320108e+00 4.888928e+01 1.300000e+01
      vertex   -4.665442e+00 4.874624e+01 1.450000e+01
    endloop
  endfacet
  facet normal -3.826834e-01 9.238795e-01 4.531882e-16
    outer loop
      vertex   -4.665442e+00 4.874624e+01 1.450000e+01
      vertex   -4.320108e+00 4.888928e+01 1.300000e+01
      vertex   -4.665442e+00 4.874624e+01 1.300000e+01
    endloop
  endfacet
  facet normal -1.305262e-01 9.914449e-01 1.545741e-16
    outer loop
      vertex   -4.665442e+00 4.874624e+01 1.450000e+01
      vertex   -4.665442e+00 4.874624e+01 1.300000e+01
      vertex   -5.036031e+00 4.869745e+01 1.450000e+01
    endloop
  endfacet
  facet normal -1.305262e-01 9.914449e-01 0.000000e+00
    outer loop
      vertex   -5.036031e+00 4.869745e+01 1.450000e+01
      vertex   -4.665442e+00 4.874624e+01 1.300000e+01
      vertex   -5.036031e+00 4.869745e+01 1.300000e+01
    endloop
  endfacet
  facet normal 1.305262e-01 9.914449e-01 0.000000e+00
    outer loop
      vertex   -5.036031e+00 4.869745e+01 1.450000e+01
      vertex   -5.036031e+00 4.869745e+01 1.300000e+01
      vertex   -5.406620e+00 4.874624e+01 1.450000e+01
    endloop
  endfacet
  facet normal 1.305262e-01 9.914449e-01 -1.545741e-16
    outer loop
      vertex   -5.406620e+00 4.874624e+01 1.450000e+01
      vertex   -5.036031e+00 4.869745e+01 1.300000e+01
      vertex   -5.406620e+00 4.874624e+01 1.300000e+01
    endloop
  endfacet
  facet normal 3.826834e-01 9.238795e-01 -4.531882e-16
    outer loop
      vertex   -5.406620e+00 4.874624e+01 1.450000e+01
      vertex   -5.406620e+00 4.874624e+01 1.300000e+01
      vertex   -5.751954e+00 4.888928e+01 1.450000e+01
    endloop
  endfacet
  facet normal 3.826834e-01 9.238795e-01 -4.531882e-16
    outer loop
      vertex   -5.751954e+00 4.888928e+01 1.450000e+01
      vertex   -5.406620e+00 4.874624e+01 1.300000e+01
      vertex   -5.751954e+00 4.888928e+01 1.300000e+01
    endloop
  endfacet
  facet normal 6.087614e-01 7.933533e-01 -7.209184e-16
    outer loop
      vertex   -5.751954e+00 4.888928e+01 1.450000e+01
      vertex   -5.751954e+00 4.888928e+01 1.300000e+01
      vertex   -6.048499e+00 4.911682e+01 1.450000e+01
    endloop
  endfacet
  facet normal 6.087614e-01 7.933533e-01 0.000000e+00
    outer loop
      vertex   -6.048499e+00 4.911682e+01 1.450000e+01
      vertex   -5.751954e+00 4.888928e+01 1.300000e+01
      vertex   -6.048499e+00 4.911682e+01 1.300000e+01
    endloop
  endfacet
  facet normal 7.933533e-01 6.087614e-01 0.000000e+00
    outer loop
      vertex   -6.048499e+00 4.911682e+01 1.450000e+01
      vertex   -6.048499e+00 4.911682e+01 1.300000e+01
      vertex   -6.276046e+00 4.941337e+01 1.450000e+01
    endloop
  endfacet
  facet normal 7.933533e-01 6.087614e-01 0.000000e+00
    outer loop
      vertex   -6.276046e+00 4.941337e+01 1.450000e+01
      vertex   -6.048499e+00 4.911682e+01 1.300000e+01
      vertex   -6.276046e+00 4.941337e+01 1.300000e+01
    endloop
  endfacet
  facet normal 9.238795e-01 3.826834e-01 0.000000e+00
    outer loop
      vertex   -6.276046e+00 4.941337e+01 1.450000e+01
      vertex   -6.276046e+00 4.941337e+01 1.300000e+01
      vertex   -6.419088e+00 4.975870e+01 1.450000e+01
    endloop
  endfacet
  facet normal 9.238795e-01 3.826834e-01 0.000000e+00
    outer loop
      vertex   -6.419088e+00 4.975870e+01 1.450000e+01
      vertex   -6.276046e+00 4.941337e+01 1.300000e+01
      vertex   -6.419088e+00 4.975870e+01 1.300000e+01
    endloop
  endfacet
  facet normal -1.000000e+00 0.000000e+00 0.000000e+00
    outer loop
      vertex   -1.000005e+01 5.690014e+01 1.300000e+01
      vertex   -1.000005e+01 2.032000e+01 1.300000e+01
      vertex   -1.000005e+01 5.690014e+01 1.450000e+01
    endloop
  endfacet
  facet normal -1.000000e+00 -0.000000e+00 0.000000e+00
    outer loop
      vertex   -1.000005e+01 5.690014e+01 1.450000e+01
      vertex   -1.000005e+01 2.032000e+01 1.300000e+01
      vertex   -1.000005e+01 2.032000e+01 1.450000e+01
    endloop
  endfacet
  facet normal 0.000000e+00 1.000000e+00 -0.000000e+00
    outer loop
      vertex   6.096000e+01 5.690014e+01 1.300000e+01
      vertex   -1.000005e+01 5.690014e+01 1.300000e+01
      vertex   6.096000e+01 5.690014e+01 1.450000e+01
    endloop
  endfacet
  facet normal 0.000000e+00 1.000000e+00 0.000000e+00
    outer loop
      vertex   6.096000e+01 5.690014e+01 1.450000e+01
      vertex   -1.000005e+01 5.690014e+01 1.300000e+01
      vertex   -1.000005e+01 5.690014e+01 1.450000e+01
    endloop
  endfacet
  facet normal 1.000000e+00 0.000000e+00 0.000000e+00
    outer loop
      vertex   6.096000e+01 2.032000e+01 1.300000e+01
      vertex   6.096000e+01 5.690014e+01 1.300000e+01
      vertex   6.096000e+01 2.032000e+01 1.450000e+01
    endloop
  endfacet
  facet normal 1.000000e+00 -0.000000e+00 0.000000e+00
    outer loop
      vertex   6.096000e+01 2.032000e+01 1.450000e+01
      vertex   6.096000e+01 5.690014e+01 1.300000e+01
      vertex   6.096000e+01 5.690014e+01 1.450000e+01
    endloop
  endfacet
  facet normal 0.000000e+00 -1.000000e+00 0.000000e+00
    outer loop
      vertex   -1.000005e+01 2.032000e+01 1.300000e+01
      vertex   6.096000e+01 2.032000e+01 1.300000e+01
      vertex   -1.000005e+01 2.032000e+01 1.450000e+01
    endloop
  endfacet
  facet normal 0.000000e+00 -1.000000e+00 0.000000e+00
    outer loop
      vertex   -1.000005e+01 2.032000e+01 1.450000e+01
      vertex   6.096000e+01 2.032000e+01 1.300000e+01
      vertex   6.096000e+01 2.032000e+01 1.450000e+01
    endloop
  endfacet
  facet normal 0.000000e+00 0.000000e+00 1.000000e+00
    outer loop
      vertex   -6.419088e+00 4.975870e+01 1.450000e+01
      vertex   -6.467877e+00 5.012929e+01 1.450000e+01
      vertex   -1.000005e+01 5.690014e+01 1.450000e+01
    endloop
  endfacet
  facet normal 0.000000e+00 0.000000e+00 1.000000e+00
    outer loop
      vertex   -1.000005e+01 5.690014e+01 1.450000e+01
      vertex   -6.467877e+00 5.012929e+01 1.450000e+01
      vertex   -6.419088e+00 5.049988e+01 1.450000e+01
    endloop
  endfacet
  facet normal 0.000000e+00 0.000000e+00 1.000000e+00
    outer loop
      vertex   -1.000005e+01 5.690014e+01 1.450000e+01
      vertex   -6.419088e+00 5.049988e+01 1.450000e+01
      vertex   -6.276046e+00 5.084522e+01 1.450000e+01
    endloop
  endfacet
  facet normal 0.000000e+00 -0.000000e+00 1.000000e+00
    outer loop
      vertex   -6.276046e+00 5.084522e+01 1.450000e+01
      vertex   -6.048499e+00 5.114176e+01 1.450000e+01
      vertex   -1.000005e+01 5.690014e+01 1.450000e+01
    endloop
  endfacet
  facet normal 0.000000e+00 0.000000e+00 1.000000e+00
    outer loop
      vertex   -1.000005e+01 5.690014e+01 1.450000e+01
      vertex   -6.048499e+00 5.114176e+01 1.450000e+01
      vertex   -5.751954e+00 5.136931e+01 1.450000e+01
    endloop
  endfacet
  facet normal 0.000000e+00 0.000000e+00 1.000000e+00
    outer loop
      vertex   -1.000005e+01 5.690014e+01 1.450000e+01
      vertex   -5.751954e+00 5.136931e+01 1.450000e+01
      vertex   -5.406620e+00 5.151235e+01 1.450000e+01
    endloop
  endfacet
  facet normal 0.000000e+00 -0.000000e+00 1.000000e+00
    outer loop
      vertex   -5.406620e+00 5.151235e+01 1.450000e+01
      vertex   -5.036031e+00 5.156114e+01 1.450000e+01
      vertex   -1.000005e+01 5.690014e+01 1.450000e+01
    endloop
  endfacet
  facet normal 0.000000e+00 0.000000e+00 1.000000e+00
    outer loop
      vertex   -1.000005e+01 5.690014e+01 1.450000e+01
      vertex   -5.036031e+00 5.156114e+01 1.450000e+01
      vertex   -4.665442e+00 5.151235e+01 1.450000e+01
    endloop
  endfacet
  facet normal 0.000000e+00 0.000000e+00 1.000000e+00
    outer loop
      vertex   -1.000005e+01 5.690014e+01 1.450000e+01
      vertex   -4.665442e+00 5.151235e+01 1.450000e+01
      vertex   -4.320108e+00 5.136931e+01 1.450000e+01
    endloop
  endfacet
  facet normal -0.000000e+00 0.000000e+00 1.000000e+00
    outer loop
      vertex   -1.000005e+01 5.690014e+01 1.450000e+01
      vertex   -4.320108e+00 5.136931e+01 1.450000e+01
      vertex   6.096000e+01 5.690014e+01 1.450000e+01
    endloop
  endfacet
  facet normal 0.000000e+00 0.000000e+00 1.000000e+00
    outer loop
      vertex   6.096000e+01 5.690014e+01 1.450000e+01
      vertex   -4.320108e+00 5.136931e+01 1.450000e+01
      vertex   -4.023563e+00 5.114176e+01 1.450000e+01
    endloop
  endfacet
  facet normal 0.000000e+00 0.000000e+00 1.000000e+00
    outer loop
      vertex   6.096000e+01 5.690014e+01 1.450000e+01
      vertex   -4.023563e+00 5.114176e+01 1.450000e+01
      vertex   -3.796016e+00 5.084522e+01 1.450000e+01
    endloop
  endfacet
  facet normal -0.000000e+00 0.000000e+00 1.000000e+00
    outer loop
      vertex   -3.796016e+00 5.084522e+01 1.450000e+01
      vertex   -3.652974e+00 5.049988e+01 1.450000e+01
      vertex   6.096000e+01 5.690014e+01 1.450000e+01
    endloop
  endfacet
  facet normal 0.000000e+00 0.000000e+00 1.000000e+00
    outer loop
      vertex   6.096000e+01 5.690014e+01 1.450000e+01
      vertex   -3.652974e+00 5.049988e+01 1.450000e+01
      vertex   -3.604185e+00 5.012929e+01 1.450000e+01
    endloop
  endfacet
  facet normal 0.000000e+00 0.000000e+00 1.000000e+00
    outer loop
      vertex   6.096000e+01 5.690014e+01 1.450000e+01
      vertex   -3.604185e+00 5.012929e+01 1.450000e+01
      vertex   -3.652974e+00 4.975870e+01 1.450000e+01
    endloop
  endfacet
  facet normal -0.000000e+00 0.000000e+00 1.000000e+00
    outer loop
      vertex   -3.652974e+00 4.975870e+01 1.450000e+01
      vertex   -3.796016e+00 4.941337e+01 1.450000e+01
      vertex   6.096000e+01 5.690014e+01 1.450000e+01
    endloop
  endfacet
  facet normal 0.000000e+00 0.000000e+00 1.000000e+00
    outer loop
      vertex   6.096000e+01 5.690014e+01 1.450000e+01
      vertex   -3.796016e+00 4.941337e+01 1.450000e+01
      vertex   -4.023563e+00 4.911682e+01 1.450000e+01
    endloop
  endfacet
  facet normal 0.000000e+00 0.000000e+00 1.000000e+00
    outer loop
      vertex   6.096000e+01 5.690014e+01 1.450000e+01
      vertex   -4.023563e+00 4.911682e+01 1.450000e+01
      vertex   6.096000e+01 2.032000e+01 1.450000e+01
    endloop
  endfacet
  facet normal 0.000000e+00 0.000000e+00 1.000000e+00
    outer loop
      vertex   6.096000e+01 2.032000e+01 1.450000e+01
      vertex   -4.023563e+00 4.911682e+01 1.450000e+01
      vertex   -4.320108e+00 4.888928e+01 1.450000e+01
    endloop
  endfacet
  facet normal 0.000000e+00 0.000000e+00 1.000000e+00
    outer loop
      vertex   6.096000e+01 2.032000e+01 1.450000e+01
      vertex   -4.320108e+00 4.888928e+01 1.450000e+01
      vertex   -1.000005e+01 2.032000e+01 1.450000e+01
    endloop
  endfacet
  facet normal 0.000000e+00 0.000000e+00 1.000000e+00
    outer loop
      vertex   -1.000005e+01 2.032000e+01 1.450000e+01
      vertex   -4.320108e+00 4.888928e+01 1.450000e+01
      vertex   -4.665442e+00 4.874624e+01 1.450000e+01
    endloop
  endfacet
  facet normal 0.000000e+00 0.000000e+00 1.000000e+00
    outer loop
      vertex   -1.000005e+01 2.032000e+01 1.450000e+01
      vertex   -4.665442e+00 4.874624e+01 1.450000e+01
      vertex   -5.036031e+00 4.869745e+01 1.450000e+01
    endloop
  endfacet
  facet normal 0.000000e+00 0.000000e+00 1.000000e+00
    outer loop
      vertex   -5.036031e+00 4.869745e+01 1.450000e+01
      vertex   -5.406620e+00 4.874624e+01 1.450000e+01
      vertex   -1.000005e+01 2.032000e+01 1.450000e+01
    endloop
  endfacet
  facet normal 0.000000e+00 0.000000e+00 1.000000e+00
    outer loop
      vertex   -1.000005e+01 2.032000e+01 1.450000e+01
      vertex   -5.406620e+00 4.874624e+01 1.450000e+01
      vertex   -5.751954e+00 4.888928e+01 1.450000e+01
    endloop
  endfacet
  facet normal 0.000000e+00 0.000000e+00 1.000000e+00
    outer loop
      vertex   -1.000005e+01 2.032000e+01 1.450000e+01
      vertex   -5.751954e+00 4.888928e+01 1.450000e+01
      vertex   -6.048499e+00 4.911682e+01 1.450000e+01
    endloop
  endfacet
  facet normal 0.000000e+00 0.000000e+00 1.000000e+00
    outer loop
      vertex   -6.048499e+00 4.911682e+01 1.450000e+01
      vertex   -6.276046e+00 4.941337e+01 1.450000e+01
      vertex   -1.000005e+01 2.032000e+01 1.450000e+01
    endloop
  endfacet
  facet normal 0.000000e+00 0.000000e+00 1.000000e+00
    outer loop
      vertex   -1.000005e+01 2.032000e+01 1.450000e+01
      vertex   -6.276046e+00 4.941337e+01 1.450000e+01
      vertex   -6.419088e+00 4.975870e+01 1.450000e+01
    endloop
  endfacet
  facet normal 0.000000e+00 0.000000e+00 1.000000e+00
    outer loop
      vertex   -1.000005e+01 2.032000e+01 1.450000e+01
      vertex   -6.419088e+00 4.975870e+01 1.450000e+01
      vertex   -1.000005e+01 5.690014e+01 1.450000e+01
    endloop
  endfacet
  facet normal -0.000000e+00 0.000000e+00 -1.000000e+00
    outer loop
      vertex   -6.419088e+00 5.049988e+01 1.300000e+01
      vertex   -6.467877e+00 5.012929e+01 1.300000e+01
      vertex   -1.000005e+01 5.690014e+01 1.300000e+01
    endloop
  endfacet
  facet normal 0.000000e+00 0.000000e+00 -1.000000e+00
    outer loop
      vertex   -1.000005e+01 5.690014e+01 1.300000e+01
      vertex   -6.467877e+00 5.012929e+01 1.300000e+01
      vertex   -6.419088e+00 4.975870e+01 1.300000e+01
    endloop
  endfacet
  facet normal 0.000000e+00 0.000000e+00 -1.000000e+00
    outer loop
      vertex   -1.000005e+01 5.690014e+01 1.300000e+01
      vertex   -6.419088e+00 4.975870e+01 1.300000e+01
      vertex   -1.000005e+01 2.032000e+01 1.300000e+01
    endloop
  endfacet
  facet normal 0.000000e+00 0.000000e+00 -1.000000e+00
    outer loop
      vertex   -1.000005e+01 2.032000e+01 1.300000e+01
      vertex   -6.419088e+00 4.975870e+01 1.300000e+01
      vertex   -6.276046e+00 4.941337e+01 1.300000e+01
    endloop
  endfacet
  facet normal 0.000000e+00 0.000000e+00 -1.000000e+00
    outer loop
      vertex   -1.000005e+01 2.032000e+01 1.300000e+01
      vertex   -6.276046e+00 4.941337e+01 1.300000e+01
      vertex   -6.048499e+00 4.911682e+01 1.300000e+01
    endloop
  endfacet
  facet normal 0.000000e+00 -0.000000e+00 -1.000000e+00
    outer loop
      vertex   -6.048499e+00 4.911682e+01 1.300000e+01
      vertex   -5.751954e+00 4.888928e+01 1.300000e+01
      vertex   -1.000005e+01 2.032000e+01 1.300000e+01
    endloop
  endfacet
  facet normal 0.000000e+00 0.000000e+00 -1.000000e+00
    outer loop
      vertex   -1.000005e+01 2.032000e+01 1.300000e+01
      vertex   -5.751954e+00 4.888928e+01 1.300000e+01
      vertex   -5.406620e+00 4.874624e+01 1.300000e+01
    endloop
  endfacet
  facet normal 0.000000e+00 0.000000e+00 -1.000000e+00
    outer loop
      vertex   -1.000005e+01 2.032000e+01 1.300000e+01
      vertex   -5.406620e+00 4.874624e+01 1.300000e+01
      vertex   -5.036031e+00 4.869745e+01 1.300000e+01
    endloop
  endfacet
  facet normal 0.000000e+00 -0.000000e+00 -1.000000e+00
    outer loop
      vertex   -5.036031e+00 4.869745e+01 1.300000e+01
      vertex   -4.665442e+00 4.874624e+01 1.300000e+01
      vertex   -1.000005e+01 2.032000e+01 1.300000e+01
    endloop
  endfacet
  facet normal 0.000000e+00 0.000000e+00 -1.000000e+00
    outer loop
      vertex   -1.000005e+01 2.032000e+01 1.300000e+01
      vertex   -4.665442e+00 4.874624e+01 1.300000e+01
      vertex   -4.320108e+00 4.888928e+01 1.300000e+01
    endloop
  endfacet
  facet normal 0.000000e+00 0.000000e+00 -1.000000e+00
    outer loop
      vertex   -1.000005e+01 2.032000e+01 1.300000e+01
      vertex   -4.320108e+00 4.888928e+01 1.300000e+01
      vertex   6.096000e+01 2.032000e+01 1.300000e+01
    endloop
  endfacet
  facet normal 0.000000e+00 0.000000e+00 -1.000000e+00
    outer loop
      vertex   6.096000e+01 2.032000e+01 1.300000e+01
      vertex   -4.320108e+00 4.888928e+01 1.300000e+01
      vertex   -4.023563e+00 4.911682e+01 1.300000e+01
    endloop
  endfacet
  facet normal 0.000000e+00 0.000000e+00 -1.000000e+00
    outer loop
      vertex   6.096000e+01 2.032000e+01 1.300000e+01
      vertex   -4.023563e+00 4.911682e+01 1.300000e+01
      vertex   6.096000e+01 5.690014e+01 1.300000e+01
    endloop
  endfacet
  facet normal 0.000000e+00 0.000000e+00 -1.000000e+00
    outer loop
      vertex   6.096000e+01 5.690014e+01 1.300000e+01
      vertex   -4.023563e+00 4.911682e+01 1.300000e+01
      vertex   -3.796016e+00 4.941337e+01 1.300000e+01
    endloop
  endfacet
  facet normal 0.000000e+00 0.000000e+00 -1.000000e+00
    outer loop
      vertex   6.096000e+01 5.690014e+01 1.300000e+01
      vertex   -3.796016e+00 4.941337e+01 1.300000e+01
      vertex   -3.652974e+00 4.975870e+01 1.300000e+01
    endloop
  endfacet
  facet normal 0.000000e+00 0.000000e+00 -1.000000e+00
    outer loop
      vertex   -3.652974e+00 4.975870e+01 1.300000e+01
      vertex   -3.604185e+00 5.012929e+01 1.300000e+01
      vertex   6.096000e+01 5.690014e+01 1.300000e+01
    endloop
  endfacet
  facet normal 0.000000e+00 0.000000e+00 -1.000000e+00
    outer loop
      vertex   6.096000e+01 5.690014e+01 1.300000e+01
      vertex   -3.604185e+00 5.012929e+01 1.300000e+01
      vertex   -3.652974e+00 5.049988e+01 1.300000e+01
    endloop
  endfacet
  facet normal 0.000000e+00 0.000000e+00 -1.000000e+00
    outer loop
      vertex   6.096000e+01 5.690014e+01 1.300000e+01
      vertex   -3.652974e+00 5.049988e+01 1.300000e+01
      vertex   -3.796016e+00 5.084522e+01 1.300000e+01
    endloop
  endfacet
  facet normal 0.000000e+00 0.000000e+00 -1.000000e+00
    outer loop
      vertex   -3.796016e+00 5.084522e+01 1.300000e+01
      vertex   -4.023563e+00 5.114176e+01 1.300000e+01
      vertex   6.096000e+01 5.690014e+01 1.300000e+01
    endloop
  endfacet
  facet normal 0.000000e+00 0.000000e+00 -1.000000e+00
    outer loop
      vertex   6.096000e+01 5.690014e+01 1.300000e+01
      vertex   -4.023563e+00 5.114176e+01 1.300000e+01
      vertex   -4.320108e+00 5.136931e+01 1.300000e+01
    endloop
  endfacet
  facet normal -0.000000e+00 0.000000e+00 -1.000000e+00
    outer loop
      vertex   6.096000e+01 5.690014e+01 1.300000e+01
      vertex   -4.320108e+00 5.136931e+01 1.300000e+01
      vertex   -1.000005e+01 5.690014e+01 1.300000e+01
    endloop
  endfacet
  facet normal 0.000000e+00 0.000000e+00 -1.000000e+00
    outer loop
      vertex   -1.000005e+01 5.690014e+01 1.300000e+01
      vertex   -4.320108e+00 5.136931e+01 1.300000e+01
      vertex   -4.665442e+00 5.151235e+01 1.300000e+01
    endloop
  endfacet
  facet normal 0.000000e+00 0.000000e+00 -1.000000e+00
    outer loop
      vertex   -1.000005e+01 5.690014e+01 1.300000e+01
      vertex   -4.665442e+00 5.151235e+01 1.300000e+01
      vertex   -5.036031e+00 5.156114e+01 1.300000e+01
    endloop
  endfacet
  facet normal -0.000000e+00 0.000000e+00 -1.000000e+00
    outer loop
      vertex   -5.036031e+00 5.156114e+01 1.300000e+01
      vertex   -5.406620e+00 5.151235e+01 1.300000e+01
      vertex   -1.000005e+01 5.690014e+01 1.300000e+01
    endloop
  endfacet
  facet normal 0.000000e+00 0.000000e+00 -1.000000e+00
    outer loop
      vertex   -1.000005e+01 5.690014e+01 1.300000e+01
      vertex   -5.406620e+00 5.151235e+01 1.300000e+01
      vertex   -5.751954e+00 5.136931e+01 1.300000e+01
    endloop
  endfacet
  facet normal 0.000000e+00 0.000000e+00 -1.000000e+00
    outer loop
      vertex   -1.000005e+01 5.690014e+01 1.300000e+01
      vertex   -5.751954e+00 5.136931e+01 1.300000e+01
      vertex   -6.048499e+00 5.114176e+01 1.300000e+01
    endloop
  endfacet
  facet normal -0.000000e+00 0.000000e+00 -1.000000e+00
    outer loop
      vertex   -6.048499e+00 5.114176e+01 1.300000e+01
      vertex   -6.276046e+00 5.084522e+01 1.300000e+01
      vertex   -1.000005e+01 5.690014e+01 1.300000e+01
    endloop
  endfacet
  facet normal 0.000000e+00 0.000000e+00 -1.000000e+00
    outer loop
      vertex   -1.000005e+01 5.690014e+01 1.300000e+01
      vertex   -6.276046e+00 5.084522e+01 1.300000e+01
      vertex   -6.419088e+00 5.049988e+01 1.300000e+01
    endloop
  endfacet
endsolid
